<svg xmlns="http://www.w3.org/2000/svg" xmlns:xlink="http://www.w3.org/1999/xlink" viewBox="0,0,256,256" width="100px" height="100px"><g fill="#339af0" fill-rule="nonzero" stroke="none" stroke-width="1" stroke-linecap="butt" stroke-linejoin="miter" stroke-miterlimit="10" stroke-dasharray="" stroke-dashoffset="0" font-family="none" font-weight="none" font-size="none" text-anchor="none" style="mix-blend-mode: normal"><g transform="scale(5.12,5.12)"><path d="M14,4c-5.51133,0 -10,4.48867 -10,10v22c0,5.51133 4.48867,10 10,10h22c5.51133,0 10,-4.48867 10,-10v-22c0,-5.51133 -4.48867,-10 -10,-10zM14,6h22c4.43067,0 8,3.56933 8,8v22c0,4.43067 -3.56933,8 -8,8h-22c-4.43067,0 -8,-3.56933 -8,-8v-22c0,-4.43067 3.56933,-8 8,-8zM27.95508,9.42969c-0.49954,-0.01029 -0.93002,0.34968 -1.00833,0.84315c-0.0783,0.49347 0.2196,0.96902 0.69778,1.11388c1.67307,0.53042 3.02793,1.48525 4.13281,2.98047c0.20897,0.29668 0.56224,0.45689 0.92311,0.41862c0.36086,-0.03827 0.67268,-0.26901 0.81478,-0.60292c0.14209,-0.33391 0.09217,-0.71859 -0.13046,-1.00516c-1.33512,-1.80678 -3.08584,-3.04769 -5.13477,-3.69727c-0.0952,-0.03162 -0.19462,-0.04874 -0.29492,-0.05078zM19.47266,12.16602c-1.73297,0.02128 -3.38237,1.15987 -3.76562,3.14063c-0.089,0.463 -0.31255,0.78945 -0.68555,1.06445c-1.129,0.818 -1.72045,1.94037 -1.68945,3.35938c0,0.414 -0.06852,0.78905 -0.35351,1.12305c-0.884,1.084 -0.94439,2.33477 -0.65039,3.63477c0.138,0.641 0.3935,1.25298 0.6875,1.83398c0.922,2.423 2.31306,4.64748 3.91406,6.64648c1.582,1.961 3.68113,3.37277 6.07812,4.25977c5.129,1.911 11.21928,-0.81949 13.48828,-6.02148c1.266,-2.896 1.5308,-5.9395 1.2168,-9.0625c-0.109,-1.024 -0.2852,-2.03986 -0.6582,-3.00586c-1.042,-2.72 -3.92063,-3.44964 -6.14063,-1.55664c-0.157,0.138 -0.28406,0.33547 -0.53906,0.35547c-0.324,-0.098 -0.42237,-0.42392 -0.60937,-0.66992c-0.551,-0.749 -1.06967,-1.52663 -1.63867,-2.26562c-0.638,-0.857 -1.43419,-1.55513 -2.36719,-2.07812c-1.051,-0.581 -2.1525,-0.80794 -3.3125,-0.33594c-0.442,0.177 -0.82481,0.13745 -1.25781,-0.06055c-0.55275,-0.25125 -1.13914,-0.36842 -1.7168,-0.36133zM19.5,14.48438c0.333,0.00863 0.66009,0.13858 0.93359,0.39258c0.229,0.209 0.40789,0.48637 0.58789,0.73438c1.462,2.098 2.90323,4.19716 4.36523,6.28516c0.189,0.268 0.30816,0.64695 0.78516,0.62695c0.229,-0.367 -0.06952,-0.63825 -0.22852,-0.90625c-0.845,-1.471 -1.70945,-2.9323 -2.56445,-4.4043c-0.159,-0.268 -0.31922,-0.54598 -0.44922,-0.83398c-0.288,-0.666 -0.23933,-1.19342 0.13867,-1.48242c0.517,-0.378 1.01495,-0.19887 1.50195,0.07813c0.468,0.268 0.85466,0.63816 1.22266,1.03516c0.716,0.756 1.31386,1.60961 1.88086,2.47461c0.765,1.154 1.49181,2.337 2.25781,3.5c0.248,0.378 0.47597,0.82469 1.04297,0.80469c0.418,-0.198 0.43811,-0.60684 0.53711,-0.96484c0.169,-0.637 0.3202,-1.28237 0.6582,-1.85937c0.358,-0.607 0.81408,-1.05414 1.58008,-0.99414c0.766,0.06 1.04413,0.65744 1.20313,1.27344c0.441,1.622 0.61853,3.28089 0.51953,4.96289c-0.099,1.671 -0.43744,3.29105 -1.02344,4.87305c-1.621,4.335 -7.94534,7.6298 -13.02734,3.5918c-1.044,-0.835 -1.99769,-1.74192 -2.80469,-2.79492c-1.372,-1.77 -2.52702,-3.6885 -3.54102,-5.6875c-0.268,-0.527 -0.46764,-1.10541 -0.55664,-1.69141c-0.07,-0.497 0.01956,-0.97295 0.47656,-1.25195c0.468,-0.288 0.90669,-0.09973 1.30469,0.19727c0.308,0.239 0.54639,0.52794 0.77539,0.83594c0.965,1.283 1.91858,2.56489 2.89258,3.83789c0.209,0.279 0.3863,0.69525 0.9043,0.40625c-0.02,-0.488 -0.29733,-0.72491 -0.48633,-1.00391c-1.323,-1.849 -2.64575,-3.6893 -3.96875,-5.5293c-0.179,-0.259 -0.36758,-0.50816 -0.51758,-0.78516c-0.367,-0.697 -0.20881,-1.44138 0.36719,-1.85937c0.576,-0.418 1.35216,-0.37909 1.91016,0.12891c0.198,0.189 0.36711,0.4292 0.53711,0.6582c1.163,1.561 2.31747,3.14112 3.48047,4.70313c0.189,0.259 0.32769,0.63687 0.80469,0.54687c0.159,-0.407 -0.13959,-0.66655 -0.30859,-0.93555c-1.343,-2.018 -2.68434,-4.03669 -4.02734,-6.05469c-0.179,-0.259 -0.36609,-0.51788 -0.49609,-0.79687c-0.328,-0.666 -0.17881,-1.3513 0.36719,-1.7793c0.2935,-0.2285 0.63184,-0.34066 0.96484,-0.33203zM27.84766,23.34375c-0.19136,-0.00629 -0.37924,0.05221 -0.5332,0.16602c-1.84613,1.3279 -3.01873,3.16983 -3.7168,5.25977c-0.10899,0.29114 -0.05036,0.61856 0.15289,0.8538c0.20324,0.23523 0.51869,0.34076 0.82257,0.27519c0.30388,-0.06558 0.54773,-0.2918 0.63588,-0.58992c0.61393,-1.83806 1.57378,-3.32186 3.09766,-4.41797c0.3004,-0.20953 0.43282,-0.58792 0.32864,-0.93904c-0.10419,-0.35113 -0.42155,-0.59605 -0.78762,-0.60783zM30.18555,24.56445c-0.22564,0.0027 -0.44094,0.095 -0.59848,0.25656c-0.15753,0.16156 -0.24437,0.37913 -0.24137,0.60477c-0.0043,1.99702 0.45531,3.70057 1.27148,5.12695c0.14816,0.26919 0.43005,0.43747 0.7373,0.44016c0.30726,0.00269 0.59205,-0.16064 0.74489,-0.4272c0.15284,-0.26656 0.14994,-0.59485 -0.00758,-0.85866c-0.66582,-1.16362 -1.04865,-2.53836 -1.04492,-4.27734c0.00412,-0.23003 -0.08517,-0.45191 -0.24749,-0.61497c-0.16232,-0.16305 -0.38379,-0.25335 -0.61384,-0.25027zM12.69922,31.63867c-0.33455,-0.00741 -0.65063,0.15298 -0.84219,0.42736c-0.19155,0.27438 -0.23319,0.62638 -0.11094,0.93788c1.34923,3.56997 3.98834,6.05836 7.50195,7.52148c0.3315,0.147 0.71661,0.10304 1.00645,-0.11489c0.28984,-0.21794 0.439,-0.5757 0.38982,-0.93498c-0.04918,-0.35929 -0.289,-0.6638 -0.62675,-0.79583c-3.11438,-1.29688 -5.24162,-3.31678 -6.40039,-6.38281c-0.14094,-0.38774 -0.50551,-0.64914 -0.91797,-0.6582z"></path></g></g></svg>